Patient4_TMGait_0pt4_01_left_41_EMG.mot
version=1
nRows=36
nColumns=33
inDegrees=no
endheader
time	1LAddLong	2LGlutMax	3LGlutMed	4LIliopsoas	5LSemiMemb	6LBicFemLong	7LRecFem	8LVastMed	9LVastLat	10LGasMed	11LTibAnt	12lTibPost	13LPeroneusLong	14LSol	15LExtDigLong	16LFlexDigLong	17RAddLong	18RGlutMax	19RGlutMed	20RIliopsoas	21RSemiMemb	22RBicFemLong	23RRecFem	24RVastMed	25RVastLat	26RGasMed	27RTibAnt	28RTibPost	29RPeroneusLong	30RSol	31RExtDigLong	32RFlexDigLong
52.893	0.030823	0.19241	-0.10544	0.013275	0.080719	-0.013123	-0.011749	-0.003357	0.042114	-0.024872	0.011292	0.002899	0.005646	-0.079193	0.010834	-0.000458	0.013275	-0.31769	-0.13199	-0.092773	-0.007935	-0.018005	0.29282	-0.032196	-0.019226	-0.006256	0.050201	-0.005493	-0.041809	0.1532	-0.003967	-0.009766
52.894	0.026245	0.18723	-0.03418	0.016327	0.047302	-0.032501	-0.023804	0.005798	0.036316	0.014801	0.007019	0.005035	0.007324	-0.092468	0.016479	-0.00473	0.002899	-0.23636	-0.003052	-0.066376	0.011597	0.00412	0.13596	-0.002289	-0.008087	-0.009613	0.21881	-0.010071	-0.070343	0.21164	-0.00351	-0.002594
52.895	0.010681	0.15747	0.005646	0.010681	0.059052	-0.018921	-0.024719	0.006561	0.042267	0.003662	0.007629	0.004883	0.000153	-0.070953	0.016937	-0.001526	0.002136	-0.19028	-0.11917	-0.049591	0.015564	0.018158	0.11612	-0.041199	-0.037994	-0.013275	0.20279	-0.008087	-0.065613	0.16693	-0.005188	-0.009918
52.896	0.01358	0.15808	0.005951	-0.003662	0.030365	-0.010071	-0.039215	0.008545	0.021973	-0.053406	0.015106	-0.009918	0.007477	-0.089264	0.019531	0.005798	-0.012512	-0.18036	-0.19577	0.000763	0.007782	0.037537	-0.010071	-0.06897	-0.091553	-0.011902	-0.002594	-0.00351	0.040741	0.097046	-0.004425	-0.004578
52.897	0.008698	0.13168	0.02243	-0.014648	0.027924	-0.003967	-0.010834	0.00946	0.006256	0.019836	0.014954	-0.000458	-0.004883	-0.027771	0.020752	-0.001984	-0.016632	-0.14679	-0.40146	-0.036774	0.031433	0.046387	-0.28686	0.02655	-0.081329	-0.006561	-0.009766	-0.004425	0.076599	0.046234	-0.004578	-0.00946
52.898	0.01297	0.16373	0.004883	0.013275	0.005798	-0.024261	-0.016632	0.007782	0.007324	0.000763	0.01236	-0.000305	-0.007782	-0.011292	0.016785	0.011902	-0.016937	-0.03479	-0.51117	-0.022583	0.013733	0.053711	-0.033417	0.23025	0.014801	-0.007935	0.23926	-0.00351	-0.001984	0.00473	-0.005798	-0.014801
52.899	0.008698	0.15488	-0.037079	0.004883	0.009918	0.009613	-0.028076	0.010986	0.014496	-0.005493	0.013733	-0.007477	-0.000763	0.014954	0.019379	-0.001984	0.00412	-0.020599	-0.16754	0.02243	0.002289	0.028229	-0.016632	-0.010681	-0.065155	-0.010834	0.23773	-0.006409	-0.043182	0.061646	-0.007324	-0.024719
52.9	0.012512	0.1474	-0.051117	0.007782	0.019073	0.00824	-0.033417	0.005188	0.016785	-0.019531	0.017853	-0.000763	-0.02182	-0.026855	0.017853	-0.006866	0.01709	0.011902	0.57678	-0.018005	-0.011902	0.021515	-0.20309	-0.32577	-0.15198	-0.014343	-0.04364	-0.00824	0.00351	0.06546	-0.004272	-0.021057
52.901	0.012665	0.097656	-0.03891	0.010834	0.014191	0.041962	-0.028687	0.007019	0.018616	-0.023956	0.016632	-0.006104	-0.028534	-0.13397	0.02182	-0.00351	0.031281	0.030518	0.96725	0.011597	-0.02243	0.015564	-0.32822	-0.37888	-0.17792	-0.005951	-0.34409	-0.007172	0.09613	0.054932	-0.001068	-0.018921
52.902	0.007019	0.11353	-0.062103	0.020294	0.01358	0.035706	-0.034485	0.00946	0.015564	-0.023804	0.019836	-0.006561	-0.015259	-0.18524	0.028534	-0.005798	0.025482	-0.020752	0.17319	0.066223	-0.024719	0.011902	-0.41168	-0.27023	0.055542	-0.007935	-0.16159	-0.002747	0.12817	-0.009613	-0.003204	-0.018921
52.903	0.001984	0.097504	-0.045013	0.002747	0.004272	0.059357	-0.015717	0.010986	-0.00061	-0.013123	0.01297	-0.007477	0.003967	-0.10635	0.038757	-0.007935	0.009613	0.067139	0.14801	-0.00412	-0.007019	0.046387	-0.64774	-0.12161	0.49469	-0.001526	0.12695	-0.003662	0.057373	-0.1297	-0.003204	-0.008698
52.904	-0.010376	0.11475	-0.03006	0.001984	0.001678	0.036011	-0.012512	0.010071	0.001984	-0.016632	0.016632	-0.008698	-0.035706	-0.037079	0.045013	-0.011902	-0.002441	0.13016	0.2504	-0.095367	0.011292	0.05188	-0.72479	-0.030518	0.45334	-0.010071	0.22568	-0.008698	0.030823	0.030823	-0.003967	-0.016174
52.905	0.001068	0.13077	0.014191	-0.010071	0.005798	0.022278	-0.015869	0.007172	-0.003052	-0.034637	0.016174	-0.011139	-0.034332	-0.040131	0.055237	-0.006866	0.00824	0.18601	-0.1178	-0.090179	0.011902	0.0383	-0.62775	0.023956	0.22842	-0.018005	0.58899	-0.006104	0.14236	0.06073	-0.003662	-0.001221
52.906	-0.00061	0.10605	-0.0354	0.003204	0.010223	-0.000458	-0.0177	0.011292	0.000305	-0.030975	0.007019	-0.001984	-0.020752	-0.043945	0.043182	-0.002747	0.006104	0.18448	-0.28564	0.007782	0.002747	0.01358	-0.41931	0.050201	0.15411	-0.009003	0.59753	-0.007935	-0.036316	-0.039673	-0.003815	-0.007324
52.907	0.010834	0.073853	-0.061798	0.014954	0.030212	-0.04303	-0.02121	0.014343	0.001831	-0.025177	0.014191	-0.006256	-0.028076	-0.064545	0.043793	-0.004425	0.013275	0.20004	-0.3801	0.063171	-0.012207	0.011139	-0.37354	-0.010986	0.24963	-0.003967	0.21805	-0.001678	-0.40298	-0.13687	0.000153	-0.009918
52.908	0.008545	0.054016	-0.064545	0.015411	0.012512	-0.031128	0.000305	0.009766	-0.000916	-0.037842	0.002289	0.002289	-0.032501	-0.06485	0.035858	-0.005646	0.00351	0.17502	-0.36148	0.075531	-0.012817	0.016632	-0.15564	0.041199	0.19028	-0.00351	0.14511	-0.00351	-0.73746	-0.13641	-0.003204	-0.008392
52.909	0.018921	0.048065	-0.044861	-0.004425	-0.029755	-0.019531	-0.042725	0.00473	-0.001526	-0.053558	0.01358	-0.005493	-0.050201	-0.068817	0.03418	-0.001526	0.01358	0.22507	-0.33264	0.018921	-0.018005	-0.009766	0.16968	0.13794	-0.2446	-0.000763	-0.49652	-0.001678	-0.33402	-0.11993	-0.000916	-0.002441
52.91	0.024719	0.060272	-0.035095	0.008087	-0.004272	0.001984	-0.046844	0.000305	-0.001068	-0.04303	0.020752	0.000763	-0.024872	-0.042114	0.034485	-0.002289	0.006104	0.25665	-0.31632	0.007324	-0.009155	0.000916	0.2478	0.1059	-0.55908	-0.003967	-0.96909	-0.007935	0.45136	-0.056458	-0.003967	-0.011597
52.911	0.016022	0.017242	-0.029907	0.004883	0.020599	0.043335	-0.020905	0.005493	-0.003662	-0.039063	0.024109	-0.000153	-0.00824	-0.006104	0.048218	-0.01358	-0.011902	0.26779	-0.1474	0.11108	0.018921	0.030212	0.25574	0.099945	-0.58838	-0.01358	-0.7692	-0.001526	0.17777	-0.005493	-0.003662	-0.013733
52.912	0.014191	-0.007629	-0.061035	-0.001984	0.000305	0.078583	-0.02533	0.002594	-0.007935	-0.046082	0.010834	-0.001984	0.011597	-0.028687	0.036774	-0.009918	0.000916	0.26657	-0.042725	0.059357	0.02182	-0.009918	-0.010834	0.012207	-0.4686	-0.015869	-0.47821	-0.005798	0.28076	0.010834	-0.00351	-0.010223
52.913	0.014038	-0.005188	-0.09079	0.006561	-0.00946	0.077209	0.001984	0.023499	-0.009155	-0.039673	0.007935	-0.001526	0.005035	-0.082855	0.036926	-0.010681	0.010071	0.31113	-0.054016	-0.059814	0.00061	-0.003815	0.094299	0.074158	-0.27039	-0.018311	-0.2681	-0.005646	-0.46249	-0.03479	0.000305	-0.012817
52.914	0.005646	-0.030975	-0.11444	0.008698	-0.052032	0.062561	-0.030975	-0.006256	-0.003967	-0.053406	0.015106	0.001221	0.004425	-0.050964	0.025482	-0.008392	-0.005341	0.26871	-0.31433	-0.13107	-0.001221	0.004883	0.071564	0.059052	-0.21668	-0.023651	-0.23438	0.007019	-0.95764	-0.097046	0.004578	-0.020447
52.915	0.006409	-0.043488	-0.10788	0.002136	-0.059814	-0.012665	-0.022888	0.004425	0.003204	-0.051422	0.017242	-0.000458	-0.022888	0.004578	0.023651	-0.006561	0.004425	0.24994	-0.11353	-0.16434	-0.007629	0.016022	-0.035553	-0.017242	-0.1886	-0.022888	-0.15259	-0.002136	0.024261	-0.14358	0.001068	-0.02243
52.916	0.007629	-0.032196	-0.088654	0.016785	0.007477	-0.031128	-0.020447	0.005493	-0.009155	-0.030212	0.014343	0.010071	-0.043182	-0.029907	0.004425	-0.00885	0.003052	0.29373	-0.042114	-0.044861	-0.019836	0.003967	-0.066071	-0.12283	-0.16113	-0.010223	-0.30365	-0.00351	0.97244	-0.23438	-0.003815	-0.011444
52.917	0.00824	0.001984	-0.043182	0.012207	-0.015869	-0.007782	-0.030518	0.010834	0.005798	-0.039673	0.048218	0.00061	-0.047913	-0.010681	0.006256	0.004425	0.011292	0.30945	-0.15686	0.12634	-0.011597	0.00351	0.1004	0.046997	-0.054321	0.01236	0.078888	-0.002594	0.56763	-0.24521	-0.003052	-0.003815
52.918	0.017853	-0.023651	-0.036163	0.016327	0.018921	0.009155	-0.036469	0.010986	-0.001984	-0.039825	0.087433	0.000305	-0.050659	-0.068359	0.019226	0	0.003357	0.3122	-0.27939	0.11032	-0.014648	-0.001221	0.17395	0.1236	0.036163	0.007019	0.7901	-0.004272	-0.19577	-0.11673	-0.00061	-0.000458
52.919	0.012207	-0.059509	-0.047913	0.005493	0.014343	0.038757	-0.037079	0.008698	-0.002747	-0.042419	0.13245	-0.023346	-0.055695	-0.053711	0.004578	-0.018158	0.006256	0.27649	-0.087738	0.05249	-0.013275	0.014801	0.19104	0.056305	0.014496	0.014038	0.24292	-0.003815	-0.23697	-0.17639	-0.001831	0.007629
52.92	0.006409	-0.03067	0.040894	0.016785	-0.028992	0.054626	-0.024109	0.009003	-0.000458	-0.041199	0.04425	-0.001984	-0.052185	-0.036316	0.016022	-0.019836	0.012054	0.28046	0.22034	0.041962	-0.009155	0.007935	0.14984	0.035248	0.029297	0.002289	1.0489	-0.003204	-0.48447	-0.15823	-0.003052	-0.015564
52.921	0.003967	-0.09964	0.071106	0.000305	-0.018311	0.040894	-0.03418	0.008698	-0.00885	-0.034637	-0.053711	0.022278	-0.005951	-0.007477	0.018005	-0.000305	0.021667	0.30594	0.00412	0.057831	-0.019226	0.00351	0.14633	0.085144	0.086365	0.000916	0.82382	-0.005035	0.19684	-0.13412	-0.005188	-0.006866
52.922	0.004272	-0.071106	0.011139	0.006104	0.057678	0.020752	-0.025635	0.009003	0.001984	-0.027771	-0.087738	0.036926	-0.027771	-0.016937	0.005188	-0.019226	0.013885	0.34012	-0.11154	0.031281	-0.009766	0.004425	0.013123	0.065002	0.12772	-0.000916	0.16754	-0.002136	1.1726	-0.037994	-0.004883	-0.004425
52.923	-0.015106	-0.10193	-0.005951	0.013733	0.017853	0.02655	-0.033569	0.002136	-0.005798	-0.029907	-0.063782	0.037994	-0.049286	-0.013275	-0.012512	0.006409	0.003204	0.35782	-0.016022	0.00473	0.002594	0.016022	-0.13092	-0.051727	0.10986	-0.002289	0.026855	-0.005951	0.94406	0.003052	-0.007172	-0.008087
52.924	0.002594	-0.13977	-0.00412	0.025482	-0.041962	0.014496	-0.033417	0.005951	0.012207	-0.040741	-0.085907	0.042725	-0.042419	-0.014343	-0.023651	0.014038	-0.008545	0.28564	0.17899	-0.018005	-0.005798	0.018921	-0.1471	-0.17288	0.075378	-0.014343	0.34103	-0.003052	0.6247	0.07019	-0.001221	-0.006409
52.925	0.002594	-0.12329	-0.032501	0.011292	-0.027466	-0.03067	-0.048676	-0.00061	0.028839	-0.045776	-0.088196	0.044708	-0.053711	-0.026245	0.025635	0.010071	-0.008087	0.24399	-0.089264	0.014191	-0.003052	0.024414	-0.16983	-0.10666	0.072479	-0.01236	0.44846	-0.002136	-0.083771	0.024872	-0.001831	-0.005035
52.926	0.00946	-0.1181	-0.026245	0.003815	0.00946	-0.040436	-0.04425	0.001373	0.027161	-0.044556	-0.025024	0.043488	-0.050354	-0.014648	0.07019	0.006714	0.003052	0.25192	-0.33203	-0.061951	0.003357	0.011902	-0.041656	-0.11459	0.020294	-0.007324	0.20493	-0.000458	-0.96634	0.12054	-0.004883	-0.005188
52.927	0.014038	-0.1265	-0.03479	0.000305	0.005035	-0.042877	-0.034637	0.006409	0.028687	-0.042725	0.090637	0.041199	-0.040283	-0.005035	0.09613	-0.006714	0.005951	0.24765	0.063019	-0.1561	-0.012817	-0.010223	0.090179	-0.04303	-0.018616	-0.007324	-0.40344	-0.00351	-1.5514	0.2919	0.000305	-0.006714
52.928	0.00946	-0.16251	-0.02182	0.016174	-0.003967	-0.074615	-0.037994	0.00412	0.017395	-0.057373	0.14297	0.03479	-0.020905	0.015717	0.062103	-0.001678	0.006256	0.18494	-0.2211	-0.103	-0.018921	0.001068	0.10468	0.098724	0.016479	-0.012512	-0.56656	-0.006714	-1.209	0.18173	0.000153	-0.003662
